<svg width="625" height="270" viewBox="0 0 625 270" fill="none" xmlns="http://www.w3.org/2000/svg">
<path d="M209 1H8.03846V261H0V270H209V261V1Z" fill="#00627B"/>
<rect x="32" y="261" width="117" height="9" fill="#003545"/>
<path d="M337 270V261H314V1H208V261H182V270H337Z" fill="#003545"/>
<rect x="231" y="88" width="67" height="13" fill="#00212A"/>
<rect x="293" y="88" width="5" height="13" fill="#010100"/>
<rect x="231" y="67" width="67" height="13" fill="#00212A"/>
<rect x="293" y="67" width="5" height="13" fill="#010100"/>
<rect x="231" y="45" width="67" height="13" fill="#00212A"/>
<rect x="293" y="45" width="5" height="13" fill="#010100"/>
<rect x="231" y="23" width="67" height="13" fill="#00212A"/>
<rect x="293" y="23" width="5" height="13" fill="#010100"/>
<rect x="226" y="117" width="53" height="21" fill="#00212A"/>
<rect x="274" y="117" width="5" height="21" fill="#010100"/>
<path d="M281.5 230H261H240.5L220 209.5V189V168.5L240.5 148H261H281.5L302 168.5V189V209.5L281.5 230Z" fill="#A5E900"/>
<path d="M254.125 162.284C257.911 164.767 261.286 177.943 261.671 178.262L256.172 180.202L241.148 167.771C243.565 163.281 250.339 159.8 254.125 162.284Z" fill="#8DC700"/>
<path d="M239.351 174.38C243.872 174.122 254.428 182.698 254.927 182.725L251.664 187.558L232.192 186.515C231.461 181.469 234.831 174.639 239.351 174.38Z" fill="#8DC700"/>
<path d="M235.928 195.881C238.892 192.458 252.4 190.862 252.767 190.522L253.959 196.23L239.645 209.471C235.515 206.48 232.964 199.304 235.928 195.881Z" fill="#8DC700"/>
<path d="M246.74 211.91C246.725 207.382 255.859 197.304 255.913 196.807L260.562 200.326L258.471 219.713C253.392 220.171 246.754 216.438 246.74 211.91Z" fill="#8DC700"/>
<path d="M270.092 216.2C266.616 213.298 264.775 199.822 264.429 199.461L269 197L283.612 212.238C280.696 216.421 273.567 219.101 270.092 216.2Z" fill="#8DC700"/>
<path d="M286.998 203.729C282.492 204.164 271 196.007 270.5 196L272.5 191L293.677 191.324C294.605 196.337 291.505 203.294 286.998 203.729Z" fill="#8DC700"/>
<path d="M289.152 181.571C286.324 185.107 272.889 187.228 272.535 187.582L270.5 182.5L284.91 168.136C289.152 170.965 291.981 178.036 289.152 181.571Z" fill="#8DC700"/>
<path d="M276.5 165.693C277 170.193 269 182 269 182.5L264 178.693V159.193C269 158.193 276 161.193 276.5 165.693Z" fill="#8DC700"/>
<circle cx="261" cy="189" r="6" fill="#8DC700"/>
<path d="M270.939 189.5C270.939 195.059 266.31 199.646 260.5 199.646C254.689 199.646 250.061 195.059 250.061 189.5C250.061 183.941 254.689 179.354 260.5 179.354C266.31 179.354 270.939 183.941 270.939 189.5Z" stroke="#0DBA0D" stroke-width="4"/>
<path d="M260.5 178.366V148M271.902 189.5H302M260.5 200.634V230M249.097 189.5H220" stroke="#0DBA0D" stroke-width="4"/>
<circle cx="261" cy="189" r="10" stroke="#01FE01" stroke-width="4"/>
<path d="M261 178V148M272 189H302M261 200L261 230M250 189H220" stroke="#01FE01" stroke-width="4"/>
<path d="M123.75 160H89.5H55.25L21 125.75V91.5V57.25L55.25 23H89.5H123.75L158 57.25V91.5V125.75L123.75 160Z" fill="#00FF03"/>
<path d="M125.25 160H92.5H59.75L27 125.75V91.5V57.25L59.75 23H92.5H125.25L158 57.25V91.5V125.75L125.25 160Z" fill="#A5E900"/>
<rect x="77" y="75" width="81" height="51" fill="#76A501"/>
<path d="M68 126H158L125.25 160H68V126Z" fill="#92CB00" fill-opacity="0.5"/>
<g style="mix-blend-mode:luminosity">
<path d="M138.64 37L62 160H91L154.9 54L138.64 37Z" fill="#CFF375"/>
</g>
<g style="mix-blend-mode:luminosity">
<path d="M71 23L21 100V125.746L41.25 146L120 23H71Z" fill="#CFF375"/>
</g>
<path d="M26 174L34 176V245L26 246.5V174Z" fill="#A3EA00"/>
<path d="M26 174L30 175V245.75L26 246.5V174Z" fill="#00FD02"/>
<path d="M41 174L49 176V245L41 246.5V174Z" fill="#A3EA00"/>
<path d="M41 174L45 175V245.75L41 246.5V174Z" fill="#00FD02"/>
<path d="M56 174L64 176V245L56 246.5V174Z" fill="#A3EA00"/>
<path d="M56 174L60 175V245.75L56 246.5V174Z" fill="#00FD02"/>
<path d="M86 174L94 176V245L86 246.5V174Z" fill="#A3EA00"/>
<path d="M86 174L90 175V245.75L86 246.5V174Z" fill="#00FD02"/>
<path d="M71 174L79 176V245L71 246.5V174Z" fill="#A3EA00"/>
<path d="M71 174L75 175V245.75L71 246.5V174Z" fill="#00FD02"/>
<path d="M101 174L109 176V245L101 246.5V174Z" fill="#A3EA00"/>
<path d="M101 174L105 175V245.75L101 246.5V174Z" fill="#00FD02"/>
<circle cx="160" cy="191" r="3" fill="#A5EB03"/>
<circle cx="152" cy="191" r="3" fill="#A5EB03"/>
<circle cx="144" cy="191" r="3" fill="#A5EB03"/>
<circle cx="168" cy="191" r="3" fill="#A5EB03"/>
<circle cx="176" cy="191" r="3" fill="#A5EB03"/>
<circle cx="184" cy="191" r="3" fill="#A5EB03"/>
<circle cx="192" cy="191" r="3" fill="#A5EB03"/>
<circle cx="160" cy="199" r="3" fill="#A5EB03"/>
<circle cx="152" cy="199" r="3" fill="#A5EB03"/>
<circle cx="144" cy="199" r="3" fill="#A5EB03"/>
<circle cx="168" cy="199" r="3" fill="#A5EB03"/>
<circle cx="176" cy="199" r="3" fill="#A5EB03"/>
<circle cx="184" cy="199" r="3" fill="#A5EB03"/>
<circle cx="192" cy="199" r="3" fill="#A5EB03"/>
<circle cx="160" cy="207" r="3" fill="#A5EB03"/>
<circle cx="152" cy="207" r="3" fill="#A5EB03"/>
<circle cx="144" cy="207" r="3" fill="#A5EB03"/>
<circle cx="168" cy="207" r="3" fill="#A5EB03"/>
<circle cx="176" cy="207" r="3" fill="#A5EB03"/>
<circle cx="184" cy="207" r="3" fill="#A5EB03"/>
<circle cx="192" cy="207" r="3" fill="#A5EB03"/>
<circle cx="160" cy="215" r="3" fill="#A5EB03"/>
<circle cx="152" cy="215" r="3" fill="#A5EB03"/>
<circle cx="144" cy="215" r="3" fill="#A5EB03"/>
<circle cx="168" cy="215" r="3" fill="#A5EB03"/>
<circle cx="176" cy="215" r="3" fill="#A5EB03"/>
<circle cx="184" cy="215" r="3" fill="#A5EB03"/>
<circle cx="192" cy="215" r="3" fill="#A5EB03"/>
<circle cx="160" cy="223" r="3" fill="#A5EB03"/>
<circle cx="152" cy="223" r="3" fill="#A5EB03"/>
<circle cx="144" cy="223" r="3" fill="#A5EB03"/>
<circle cx="168" cy="223" r="3" fill="#A5EB03"/>
<circle cx="176" cy="223" r="3" fill="#A5EB03"/>
<circle cx="184" cy="223" r="3" fill="#A5EB03"/>
<circle cx="192" cy="223" r="3" fill="#A5EB03"/>
<circle cx="160" cy="231" r="3" fill="#A5EB03"/>
<circle cx="152" cy="231" r="3" fill="#A5EB03"/>
<circle cx="144" cy="231" r="3" fill="#A5EB03"/>
<circle cx="168" cy="231" r="3" fill="#A5EB03"/>
<circle cx="176" cy="231" r="3" fill="#A5EB03"/>
<circle cx="184" cy="231" r="3" fill="#A5EB03"/>
<circle cx="192" cy="231" r="3" fill="#A5EB03"/>
<circle cx="160" cy="239" r="3" fill="#A5EB03"/>
<circle cx="152" cy="239" r="3" fill="#A5EB03"/>
<circle cx="144" cy="239" r="3" fill="#A5EB03"/>
<circle cx="168" cy="239" r="3" fill="#A5EB03"/>
<circle cx="176" cy="239" r="3" fill="#A5EB03"/>
<circle cx="184" cy="239" r="3" fill="#A5EB03"/>
<circle cx="192" cy="239" r="3" fill="#A5EB03"/>
<path d="M616 222L625 5L359 0H347L356 222H616Z" fill="#00627C"/>
<path d="M625 5L359 0L368 222H616L625 5Z" fill="#003545"/>
<path d="M420 171L392 222H588L550 171H420Z" fill="#002430"/>
<path d="M566 171H550L588 222H603.5L566 171Z" fill="#004153"/>
<path d="M452 134L445 152L456 254V268L555 254L452 134Z" fill="#02617A"/>
<path d="M596 269V254H555L534 134H452L463 254H378V269H596Z" fill="#004153"/>
<rect x="386" y="18" width="6" height="174" fill="#B5FE01"/>
<rect x="392" y="18" width="3" height="174" fill="#0FFF01"/>
<rect x="592" y="20" width="6" height="174" fill="#B5FE01"/>
<rect x="598" y="20" width="3" height="174" fill="#0FFF01"/>
<path d="M475 37H523V69L499 85L475 69V37Z" fill="#00FF00"/>
<path d="M475 37H515V68L494.5 82L475 69V37Z" fill="#B6FF00"/>
</svg>
