<svg width="450" height="383" viewBox="0 0 450 383" fill="none" xmlns="http://www.w3.org/2000/svg">
<rect x="90" y="151" width="360" height="226" rx="17" fill="#0062D1"/>
<rect x="125" y="179" width="107" height="11" rx="5.5" fill="#63A4FE"/>
<rect x="124" y="231" width="72" height="53" rx="9" fill="#63A4FE"/>
<rect x="124" y="309" width="61" height="26" rx="9" fill="#63A4FE"/>
<rect x="201" y="309" width="61" height="26" rx="9" fill="#63A4FE"/>
<rect x="278" y="309" width="61" height="26" rx="9" fill="#63A4FE"/>
<rect x="355" y="309" width="61" height="26" rx="9" fill="#63A4FE"/>
<circle cx="392" cy="207" r="24" fill="#004DA7"/>
<circle cx="362" cy="207" r="24" fill="#007EFB"/>
<circle cx="93.5609" cy="147.561" r="68.4913" transform="rotate(-30 93.5609 147.561)" fill="#01499D"/>
<path d="M66.2586 97.4181C38.9595 113.179 29.6061 148.086 45.3673 175.386C56.9311 195.415 78.8015 205.784 100.412 203.661C-0.66724 191.254 45.1418 65.1235 124.052 97.8276C106.871 87.5946 84.8083 86.7084 66.2586 97.4181Z" fill="#01387B"/>
<rect x="68.0815" y="149.09" width="7.13451" height="45.6609" rx="2" transform="rotate(-120 68.0815 149.09)" fill="#C3DDFF"/>
<rect x="75.9294" y="162.683" width="7.13451" height="45.6609" rx="2" transform="rotate(-120 75.9294 162.683)" fill="#C3DDFF"/>
<rect x="83.7774" y="176.276" width="7.13451" height="45.6609" rx="2" transform="rotate(-120 83.7774 176.276)" fill="#C3DDFF"/>
<rect x="82.1082" y="159.116" width="7.13451" height="22.8304" rx="2" transform="rotate(150 82.1082 159.116)" fill="#C3DDFF"/>
<rect x="113.869" y="177.027" width="7.13451" height="22.8304" rx="2" transform="rotate(150 113.869 177.027)" fill="#C3DDFF"/>
<rect x="90.3247" y="136.248" width="7.13451" height="22.8304" rx="2" transform="rotate(150 90.3247 136.248)" fill="#C3DDFF"/>
<rect x="123.321" y="153.446" width="7.13451" height="22.8304" rx="2" transform="rotate(150 123.321 153.446)" fill="#C3DDFF"/>
<circle cx="201" cy="62" r="48" fill="#01499D"/>
<path d="M202 22C179.909 22 162 39.9086 162 62C162 78.2083 171.64 92.1651 185.5 98.4491C128.5 55.5 200.5 -5 236.933 42.5C230.091 30.2688 217.011 22 202 22Z" fill="#01387B"/>
<rect x="185" y="54" width="5" height="32" rx="2" transform="rotate(-90 185 54)" fill="#C3DDFF"/>
<rect x="185" y="64.9999" width="5" height="32" rx="2" transform="rotate(-90 185 64.9999)" fill="#C3DDFF"/>
<rect x="185" y="76" width="5" height="32" rx="2" transform="rotate(-90 185 76)" fill="#C3DDFF"/>
<rect x="190" y="65" width="5" height="16" rx="2" transform="rotate(180 190 65)" fill="#C3DDFF"/>
<rect x="203" y="87" width="5" height="16" rx="2" transform="rotate(180 203 87)" fill="#C3DDFF"/>
<rect x="203" y="54" width="5" height="16" rx="2" transform="rotate(180 203 54)" fill="#C3DDFF"/>
<rect x="217" y="76" width="5" height="16" rx="2" transform="rotate(180 217 76)" fill="#C3DDFF"/>
<path d="M346 373V361H355V373H346Z" fill="#FF8D84"/>
<path d="M379 358.5L372.5 350L365.5 356L372 364.5L379 358.5Z" fill="#FF8D84"/>
<path d="M324 379.5L346 373H356.5V379.5L365.5 374.5L371 364.5L379.5 358L388 366L368 383H356.5H325.5C323.5 383 324 379.5 324 379.5Z" fill="#1C2D37"/>
<path d="M300 245C299.5 232.5 314 138 314 138H333L330.5 232L330.5 252.5C336.633 280.984 342.99 300.117 356 321.739C360.225 328.762 365.152 336.047 371 344L361.5 352.636L360 354C358.671 352.271 357.337 350.492 356 348.673C328.685 311.484 300.477 256.917 300 245Z" fill="#00214E"/>
<path d="M330.5 252.5C333.021 264.208 335.58 274.336 338.623 283.707V323C336.485 319.608 334.382 316.186 332.329 312.766L325.5 249L329 178.5L330.5 232V252.5Z" fill="#00193E"/>
<path d="M356.5 356.5L362 138H331L330.5 232L333 255L341 355.5L356.5 356.5Z" fill="#00214E"/>
<path d="M361.5 352.636L360 354C358.671 352.271 357.337 350.492 356 348.673V321.739L361.5 330.5V352.636Z" fill="#00193E"/>
<path d="M374.5 349L371 344L359 354.5L363 359L374.5 349Z" fill="#AACAFD"/>
<path d="M341 355.5L341.5 361.5H356.5V356.469L341 355.5Z" fill="#AACAFD"/>
<path d="M311.5 95L302.5 88.5C302.5 88.5 290 115 288 117C286 119 259 148.5 259 148.5H249.5C248 148.5 240 152 239 153C238 154 243.5 156 245 156C246.5 156 248 155 249.5 155C251 155 260 155.5 261 155C262 154.5 263 152 263.5 151C264 150 294.5 126.5 297 123.5C299.5 120.5 311.5 95 311.5 95Z" fill="#FF8D84"/>
<path d="M338.002 60.6115C334.274 59.0125 332.937 57.9059 333 54.5C334.58 53.3849 335.972 52.9725 337.5 52.5C344.195 50.4301 350.093 53.3924 350.502 55.1116C351.004 57.2232 344.139 59.3486 338.002 60.6115Z" fill="#FF8D84"/>
<path d="M349 53.5V36L338 42L337.5 52.5L349 53.5Z" fill="#FF8D84"/>
<path d="M362 138H314L310 94L299 86C299 86 310 59.5 316.5 58C323 56.5 333 54.5 333 54.5C333 54.5 332.5 59.5 338 60C343.5 60.5 348.5 54.5 351.5 54.5C354.5 54.5 365 57 368.5 58C372 59 384.5 87.5 384.5 87.5L368 96.5C368 96.5 368 93 366 91.5C364 90 362 90.5 362 90.5V138Z" fill="#BFD8FF"/>
<path d="M335 68C334.674 64.8223 335.693 62.3322 337 62C338.327 64.2434 338.757 65.5345 338 68C337.219 80.3015 338.509 88.8443 337.5 100C336.491 111.156 332 125 331.5 125C331 125 328 104.5 328.5 100C329 95.4999 335 68 335 68Z" fill="#0063E6"/>
<path d="M386 105.5C386 102.5 382.5 88.5 382.5 88.5L371.5 94.5C371.5 94.5 375.5 106 374 109C372.5 112 363.5 130.5 363.5 130.5C363.5 130.5 356 129 355 129C354 129 348 133 348 134.5C348 136 351 141.5 352.5 142.5C354 143.5 366 137.5 367 135.5C368 133.5 386 108.5 386 105.5Z" fill="#FF8D84"/>
<path d="M328.5 18C327 18 331 11 331 11C331 11 339 8 335 10C331 12 329 16 329 16C329 16 330 18 328.5 18Z" fill="#1A2E35"/>
<path d="M335.5 43C340.503 42.1464 343.479 40.5961 349 36.5C353.902 35.414 355.433 33.5514 356 28C354.675 21.9212 354.068 18.1277 350 14C345.995 10.0047 341.707 9.57241 333.5 10.5C330.993 12.4782 329.41 14.9133 328 18C325.759 24.5155 326 34 327.5 36.5C329 39 332.035 42.6 335.5 43Z" fill="#FF8D84"/>
<path d="M326 4C325 2.5 327 0.5 327 0.5C322.468 1.48262 320 3.5 320 6C320 8.5 327.364 13.0431 328 11.5C328.152 11.1301 331.167 11.1667 332.5 11C341.35 9.97538 345.287 10.8579 350.5 15C349.167 18.5 347.5 23 346 25.5C344.5 28 345.5 34 347 30.5C348.5 27 351.1 27.5 351.5 27.5C351.9 27.5 355.5 29 357 28C358.5 27 362.5 16 362.5 16C362.5 16 359.5 16.5 359.5 13.5C359.5 10.5 364.5 5 359 3C353.5 0.999999 334.5 4.5 332.5 4C330.5 3.5 334.5 -0.5 332 1C329.5 2.5 328.5 4.5 328.5 4.5C328.5 4.5 327 5.5 326 4Z" fill="#1A2E35"/>
<path d="M332.5 31.5001C335 32.0001 339.9 32.5001 339.5 30.5001M339 18.5001C341.305 18.0434 342.549 19.6181 343.5 21.0001M328.5 17.5C331 15.5 332.5 17.5 332.5 17.5" stroke="#1A2E35" stroke-width="0.5"/>
<path d="M329 28.0233C329.5 27.8747 331.783 24.9254 331.783 24.9254C331.783 24.9254 333.293 24.6884 333.293 25.7768C333.293 26.8652 332.5 27.8287 331 28.426C329.5 29.0233 328.5 28.1719 329 28.0233Z" fill="#F4564A"/>
<path d="M340 23C340 23.5523 339.552 24 339 24C338.448 24 338 23.5523 338 23C338 22.4477 338.448 22 339 22C339.552 22 340 22.4477 340 23Z" fill="#1A2E35"/>
<circle cx="331" cy="22" r="1" fill="#1A2E35"/>
</svg>
