<svg width="69" height="34" viewBox="0 0 69 34" fill="none" xmlns="http://www.w3.org/2000/svg">
<path d="M21.722 30.0614C14.5605 29.447 9.94651 28.1407 1 24.565C10.6645 29.9214 18.5223 33.0611 34.0415 32.9991C31.2451 31.8122 30.2543 31.5826 29.8718 31.167C36.6126 30.2916 39.5066 29.3624 43.4233 26.5867L39.4747 25.9549C44.5329 21.7585 46.3562 18.8824 49.0144 13.4459C39.3934 21.8781 33.5436 25.1021 27.2816 24.565L31.3881 26.3971C26.3462 28.3497 23.5042 28.4974 18.4052 26.9025L21.722 30.0614Z" fill="#0290DF" stroke="#0290DF"/>
<path d="M47.5614 3.93861C54.7228 4.55295 59.3369 5.85933 68.2834 9.435C58.6188 4.0786 50.7611 0.938896 35.2419 1.00089C38.0383 2.18785 39.0291 2.41739 39.4115 2.83302C32.6707 3.70845 29.7768 4.63764 25.8601 7.41334L29.8087 8.04511C24.7505 12.2415 22.9272 15.1176 20.2689 20.5541C29.89 12.1219 35.7398 8.89791 42.0018 9.435L37.8953 7.60287C42.9371 5.65033 45.7792 5.50256 50.8782 7.09746L47.5614 3.93861Z" fill="#0290DF" stroke="#0290DF"/>
</svg>
