<svg width="222" height="59" viewBox="0 0 222 59" fill="none" xmlns="http://www.w3.org/2000/svg">
<path d="M45.2506 44.3907C43.2037 44.3907 41.6557 43.815 40.6067 42.6636C39.5576 41.4866 39.0331 39.8107 39.0331 37.6358V36.1006H43.0246V37.9428C43.0246 39.6827 43.7538 40.5527 45.2123 40.5527C45.9287 40.5527 46.466 40.348 46.8242 39.9386C47.208 39.5036 47.3999 38.8128 47.3999 37.8661C47.3999 36.7403 47.144 35.7552 46.6323 34.9108C46.1206 34.0409 45.1739 33.0046 43.7922 31.802C42.0523 30.2668 40.8369 28.8852 40.1461 27.657C39.4553 26.4033 39.1098 24.996 39.1098 23.4352C39.1098 21.3115 39.6472 19.674 40.7218 18.5226C41.7964 17.3456 43.3572 16.7571 45.4042 16.7571C47.4255 16.7571 48.9479 17.3456 49.9714 18.5226C51.0204 19.674 51.5449 21.3371 51.5449 23.512V24.625H47.5534V23.2433C47.5534 22.3222 47.3743 21.6569 47.0161 21.2476C46.6579 20.8126 46.1334 20.5951 45.4425 20.5951C44.0353 20.5951 43.3316 21.4522 43.3316 23.1666C43.3316 24.1388 43.5875 25.0472 44.0992 25.8915C44.6366 26.7359 45.5961 27.7594 46.9777 28.9619C48.7432 30.4971 49.9586 31.8916 50.6238 33.1453C51.2891 34.3991 51.6217 35.8703 51.6217 37.559C51.6217 39.7595 51.0716 41.4482 49.9714 42.6252C48.8967 43.8022 47.3231 44.3907 45.2506 44.3907ZM54.0423 17.1409H65.5563V20.9789H58.2641V28.0792H64.0595V31.9172H58.2641V40.1689H65.5563V44.0069H54.0423V17.1409ZM67.9851 17.1409H74.241C76.4159 17.1409 78.0022 17.6526 79.0001 18.6761C79.998 19.674 80.4969 21.222 80.4969 23.3201V24.9704C80.4969 27.7594 79.5758 29.5248 77.7336 30.2668V30.3436C78.757 30.6506 79.4735 31.2775 79.8828 32.2242C80.3178 33.1709 80.5353 34.4375 80.5353 36.0238V40.7446C80.5353 41.5122 80.5609 42.139 80.6121 42.6252C80.6632 43.0857 80.7912 43.5463 80.9959 44.0069H76.6973C76.5438 43.5719 76.4414 43.1625 76.3903 42.7787C76.3391 42.3949 76.3135 41.7041 76.3135 40.7062V35.7936C76.3135 34.5654 76.1088 33.7082 75.6994 33.2221C75.3156 32.736 74.6376 32.4929 73.6653 32.4929H72.2069V44.0069H67.9851V17.1409ZM73.742 28.6549C74.5864 28.6549 75.2133 28.4374 75.6227 28.0024C76.0576 27.5675 76.2751 26.8382 76.2751 25.8148V23.7423C76.2751 22.77 76.096 22.0663 75.7378 21.6314C75.4052 21.1964 74.8679 20.9789 74.1258 20.9789H72.2069V28.6549H73.742ZM82.2015 17.1409H86.4617L89.2251 37.9812H89.3018L92.0652 17.1409H95.9416L91.8733 44.0069H86.2698L82.2015 17.1409ZM97.9694 17.1409H102.191V44.0069H97.9694V17.1409ZM111.34 44.3907C109.293 44.3907 107.733 43.815 106.658 42.6636C105.583 41.4866 105.046 39.8107 105.046 37.6358V23.512C105.046 21.3371 105.583 19.674 106.658 18.5226C107.733 17.3456 109.293 16.7571 111.34 16.7571C113.387 16.7571 114.948 17.3456 116.023 18.5226C117.097 19.674 117.635 21.3371 117.635 23.512V25.8148H113.643V23.2433C113.643 21.4778 112.914 20.5951 111.455 20.5951C109.997 20.5951 109.268 21.4778 109.268 23.2433V37.9428C109.268 39.6827 109.997 40.5527 111.455 40.5527C112.914 40.5527 113.643 39.6827 113.643 37.9428V32.6848H111.532V28.8468H117.635V37.6358C117.635 39.8107 117.097 41.4866 116.023 42.6636C114.948 43.815 113.387 44.3907 111.34 44.3907ZM123.608 17.1409H129.326L133.701 44.0069H129.48L128.712 38.6721V38.7488H123.915L123.147 44.0069H119.232L123.608 17.1409ZM128.213 35.1027L126.332 21.8233H126.256L124.413 35.1027H128.213ZM135.75 17.1409H141.775L144.462 36.3693H144.539L147.225 17.1409H153.251V44.0069H149.259V23.6655H149.183L146.112 44.0069H142.581L139.511 23.6655H139.434V44.0069H135.75V17.1409ZM156.401 17.1409H167.915V20.9789H160.623V28.0792H166.419V31.9172H160.623V40.1689H167.915V44.0069H156.401V17.1409ZM170.344 17.1409H176.6C178.775 17.1409 180.361 17.6526 181.359 18.6761C182.357 19.674 182.856 21.222 182.856 23.3201V24.9704C182.856 27.7594 181.935 29.5248 180.093 30.2668V30.3436C181.116 30.6506 181.832 31.2775 182.242 32.2242C182.677 33.1709 182.894 34.4375 182.894 36.0238V40.7446C182.894 41.5122 182.92 42.139 182.971 42.6252C183.022 43.0857 183.15 43.5463 183.355 44.0069H179.056C178.903 43.5719 178.8 43.1625 178.749 42.7787C178.698 42.3949 178.673 41.7041 178.673 40.7062V35.7936C178.673 34.5654 178.468 33.7082 178.058 33.2221C177.675 32.736 176.997 32.4929 176.024 32.4929H174.566V44.0069H170.344V17.1409ZM176.101 28.6549C176.945 28.6549 177.572 28.4374 177.982 28.0024C178.417 27.5675 178.634 26.8382 178.634 25.8148V23.7423C178.634 22.77 178.455 22.0663 178.097 21.6314C177.764 21.1964 177.227 20.9789 176.485 20.9789H174.566V28.6549H176.101Z" fill="black"/>
<path d="M177.367 53.8166C165.72 52.8229 158.217 50.7097 143.668 44.9258C159.384 53.5902 172.163 58.6689 197.401 58.5686C192.854 56.6486 191.242 56.2773 190.62 55.605C201.583 54.1889 206.289 52.6859 212.658 48.196L206.237 47.174C214.463 40.386 217.428 35.7338 221.751 26.9397C206.105 40.5795 196.592 45.7946 186.408 44.9258L193.086 47.8894C184.887 51.0478 180.265 51.2868 171.973 48.7069L177.367 53.8166Z" fill="#0290DF" stroke="#0290DF" stroke-width="0.0661723"/>
<path d="M45.6379 9.39026C57.3233 9.1115 65.0121 10.3961 80.1041 14.5634C63.5381 7.65968 50.2829 4.00084 25.2054 6.84531C29.9349 8.25935 31.5771 8.4532 32.2684 9.05388C21.5253 11.6538 17.0104 13.6597 11.1669 18.8157L17.6613 19.1333C10.2226 26.7756 7.78094 31.7227 4.44 40.9348C18.51 25.6743 27.3996 19.4556 37.6173 19.2117L30.6564 16.9919C38.4636 12.9605 43.032 12.2203 51.5556 13.883L45.6379 9.39026Z" fill="#0290DF" stroke="#0290DF" stroke-width="0.0661723"/>
</svg>
